<svg viewBox="0 0 760 460" xmlns="http://www.w3.org/2000/svg" font-family="ui-sans-serif,system-ui,-apple-system,Segoe UI,Roboto,sans-serif" role="img" aria-label="Interface-energy funnel: the crystal pose is the global minimum at -25 kcal/mol; the Chai-1 prediction sits 23 angstrom away at +53 kcal/mol in a clashing regime, flagged by its own ipTM 0.63">
<rect x="64" y="48.0" width="678" height="237.3" fill="#dc2626" opacity="0.05"/>
<rect x="64" y="285.3" width="678" height="118.7" fill="#15a34a" opacity="0.07"/>
<line x1="64" y1="48.0" x2="742" y2="48.0" stroke="#e9ecf2" stroke-width="1"/>
<text x="56" y="51.0" fill="#8a94a6" font-size="11" text-anchor="end">+60</text>
<line x1="64" y1="127.1" x2="742" y2="127.1" stroke="#e9ecf2" stroke-width="1"/>
<text x="56" y="130.1" fill="#8a94a6" font-size="11" text-anchor="end">+40</text>
<line x1="64" y1="206.2" x2="742" y2="206.2" stroke="#e9ecf2" stroke-width="1"/>
<text x="56" y="209.2" fill="#8a94a6" font-size="11" text-anchor="end">+20</text>
<line x1="64" y1="285.3" x2="742" y2="285.3" stroke="#e9ecf2" stroke-width="1"/>
<text x="56" y="288.3" fill="#8a94a6" font-size="11" text-anchor="end">+0</text>
<line x1="64" y1="364.4" x2="742" y2="364.4" stroke="#e9ecf2" stroke-width="1"/>
<text x="56" y="367.4" fill="#8a94a6" font-size="11" text-anchor="end">-20</text>
<line x1="64.0" y1="404" x2="64.0" y2="408" stroke="#d7dce6" stroke-width="1"/>
<text x="64.0" y="422" fill="#8a94a6" font-size="11" text-anchor="middle">0</text>
<line x1="169.9" y1="404" x2="169.9" y2="408" stroke="#d7dce6" stroke-width="1"/>
<text x="169.9" y="422" fill="#8a94a6" font-size="11" text-anchor="middle">5</text>
<line x1="275.9" y1="404" x2="275.9" y2="408" stroke="#d7dce6" stroke-width="1"/>
<text x="275.9" y="422" fill="#8a94a6" font-size="11" text-anchor="middle">10</text>
<line x1="381.8" y1="404" x2="381.8" y2="408" stroke="#d7dce6" stroke-width="1"/>
<text x="381.8" y="422" fill="#8a94a6" font-size="11" text-anchor="middle">15</text>
<line x1="487.8" y1="404" x2="487.8" y2="408" stroke="#d7dce6" stroke-width="1"/>
<text x="487.8" y="422" fill="#8a94a6" font-size="11" text-anchor="middle">20</text>
<line x1="593.7" y1="404" x2="593.7" y2="408" stroke="#d7dce6" stroke-width="1"/>
<text x="593.7" y="422" fill="#8a94a6" font-size="11" text-anchor="middle">25</text>
<line x1="699.6" y1="404" x2="699.6" y2="408" stroke="#d7dce6" stroke-width="1"/>
<text x="699.6" y="422" fill="#8a94a6" font-size="11" text-anchor="middle">30</text>
<rect x="64" y="48" width="678" height="356" fill="none" stroke="#d7dce6" stroke-width="1.2"/>
<line x1="64" y1="285.3" x2="742" y2="285.3" stroke="#b7bfca" stroke-width="1.2" stroke-dasharray="5 4"/>
<text x="736" y="279.3" fill="#8a94a6" font-size="10.5" text-anchor="end">no net interface (E = 0)</text>
<circle cx="64.0" cy="385.8" r="2.4" fill="#15a34a" opacity="0.55"/>
<circle cx="458.1" cy="291.6" r="2.4" fill="#15a34a" opacity="0.55"/>
<path d="M 601.5 51 l 3 5 l -6 0 z" fill="#dc2626" opacity="0.16"/>
<path d="M 599.4 51 l 3 5 l -6 0 z" fill="#dc2626" opacity="0.16"/>
<path d="M 479.1 51 l 3 5 l -6 0 z" fill="#dc2626" opacity="0.16"/>
<circle cx="411.1" cy="285.6" r="2.4" fill="#15a34a" opacity="0.55"/>
<circle cx="441.3" cy="285.1" r="2.4" fill="#9aa3b2" opacity="0.4"/>
<path d="M 456.4 51 l 3 5 l -6 0 z" fill="#dc2626" opacity="0.16"/>
<circle cx="529.9" cy="285.3" r="2.4" fill="#9aa3b2" opacity="0.4"/>
<circle cx="433.3" cy="290.6" r="2.4" fill="#15a34a" opacity="0.55"/>
<circle cx="590.7" cy="286.4" r="2.4" fill="#15a34a" opacity="0.55"/>
<circle cx="557.0" cy="285.4" r="2.4" fill="#15a34a" opacity="0.55"/>
<circle cx="723.8" cy="285.3" r="2.4" fill="#9aa3b2" opacity="0.4"/>
<path d="M 671.4 51 l 3 5 l -6 0 z" fill="#dc2626" opacity="0.16"/>
<path d="M 570.2 51 l 3 5 l -6 0 z" fill="#dc2626" opacity="0.16"/>
<circle cx="529.1" cy="285.3" r="2.4" fill="#9aa3b2" opacity="0.4"/>
<path d="M 632.9 51 l 3 5 l -6 0 z" fill="#dc2626" opacity="0.16"/>
<circle cx="570.6" cy="284.1" r="2.4" fill="#9aa3b2" opacity="0.4"/>
<circle cx="414.0" cy="285.4" r="2.4" fill="#15a34a" opacity="0.55"/>
<path d="M 538.8 51 l 3 5 l -6 0 z" fill="#dc2626" opacity="0.16"/>
<path d="M 667.4 51 l 3 5 l -6 0 z" fill="#dc2626" opacity="0.16"/>
<circle cx="656.8" cy="292.1" r="2.4" fill="#15a34a" opacity="0.55"/>
<circle cx="554.3" cy="285.3" r="2.4" fill="#9aa3b2" opacity="0.4"/>
<circle cx="641.6" cy="285.3" r="2.4" fill="#9aa3b2" opacity="0.4"/>
<path d="M 621.4 51 l 3 5 l -6 0 z" fill="#dc2626" opacity="0.16"/>
<circle cx="399.6" cy="95.3" r="2.4" fill="#9aa3b2" opacity="0.4"/>
<circle cx="363.0" cy="235.8" r="2.4" fill="#9aa3b2" opacity="0.4"/>
<circle cx="483.7" cy="223.7" r="2.4" fill="#9aa3b2" opacity="0.4"/>
<path d="M 157.4 51 l 3 5 l -6 0 z" fill="#dc2626" opacity="0.16"/>
<path d="M 454.1 51 l 3 5 l -6 0 z" fill="#dc2626" opacity="0.16"/>
<path d="M 559.4 51 l 3 5 l -6 0 z" fill="#dc2626" opacity="0.16"/>
<circle cx="519.1" cy="179.8" r="2.4" fill="#9aa3b2" opacity="0.4"/>
<circle cx="533.5" cy="285.9" r="2.4" fill="#15a34a" opacity="0.55"/>
<path d="M 490.1 51 l 3 5 l -6 0 z" fill="#dc2626" opacity="0.16"/>
<circle cx="411.1" cy="285.3" r="2.4" fill="#9aa3b2" opacity="0.4"/>
<path d="M 591.8 51 l 3 5 l -6 0 z" fill="#dc2626" opacity="0.16"/>
<path d="M 478.9 51 l 3 5 l -6 0 z" fill="#dc2626" opacity="0.16"/>
<path d="M 400.5 51 l 3 5 l -6 0 z" fill="#dc2626" opacity="0.16"/>
<circle cx="422.3" cy="233.8" r="2.4" fill="#9aa3b2" opacity="0.4"/>
<path d="M 499.2 51 l 3 5 l -6 0 z" fill="#dc2626" opacity="0.16"/>
<path d="M 590.7 51 l 3 5 l -6 0 z" fill="#dc2626" opacity="0.16"/>
<circle cx="493.5" cy="280.3" r="2.4" fill="#9aa3b2" opacity="0.4"/>
<circle cx="656.0" cy="286.6" r="2.4" fill="#15a34a" opacity="0.55"/>
<circle cx="550.5" cy="285.4" r="2.4" fill="#15a34a" opacity="0.55"/>
<path d="M 355.5 51 l 3 5 l -6 0 z" fill="#dc2626" opacity="0.16"/>
<circle cx="586.1" cy="285.6" r="2.4" fill="#15a34a" opacity="0.55"/>
<circle cx="557.9" cy="137.0" r="2.4" fill="#9aa3b2" opacity="0.4"/>
<path d="M 236.3 51 l 3 5 l -6 0 z" fill="#dc2626" opacity="0.16"/>
<path d="M 650.5 51 l 3 5 l -6 0 z" fill="#dc2626" opacity="0.16"/>
<circle cx="643.7" cy="285.3" r="2.4" fill="#9aa3b2" opacity="0.4"/>
<circle cx="519.1" cy="285.3" r="2.4" fill="#9aa3b2" opacity="0.4"/>
<path d="M 358.9 51 l 3 5 l -6 0 z" fill="#dc2626" opacity="0.16"/>
<circle cx="667.4" cy="54.2" r="2.4" fill="#9aa3b2" opacity="0.4"/>
<circle cx="490.5" cy="286.4" r="2.4" fill="#15a34a" opacity="0.55"/>
<circle cx="542.4" cy="278.5" r="2.4" fill="#9aa3b2" opacity="0.4"/>
<path d="M 621.4 51 l 3 5 l -6 0 z" fill="#dc2626" opacity="0.16"/>
<path d="M 641.6 51 l 3 5 l -6 0 z" fill="#dc2626" opacity="0.16"/>
<path d="M 486.7 51 l 3 5 l -6 0 z" fill="#dc2626" opacity="0.16"/>
<path d="M 195.4 51 l 3 5 l -6 0 z" fill="#dc2626" opacity="0.16"/>
<path d="M 427.2 51 l 3 5 l -6 0 z" fill="#dc2626" opacity="0.16"/>
<path d="M 432.5 51 l 3 5 l -6 0 z" fill="#dc2626" opacity="0.16"/>
<path d="M 487.8 51 l 3 5 l -6 0 z" fill="#dc2626" opacity="0.16"/>
<circle cx="475.5" cy="285.5" r="2.4" fill="#15a34a" opacity="0.55"/>
<path d="M 713.6 51 l 3 5 l -6 0 z" fill="#dc2626" opacity="0.16"/>
<circle cx="520.2" cy="159.1" r="2.4" fill="#9aa3b2" opacity="0.4"/>
<path d="M 502.2 51 l 3 5 l -6 0 z" fill="#dc2626" opacity="0.16"/>
<circle cx="200.0" cy="287.2" r="2.4" fill="#15a34a" opacity="0.55"/>
<circle cx="481.8" cy="288.2" r="2.4" fill="#15a34a" opacity="0.55"/>
<circle cx="409.8" cy="285.3" r="2.4" fill="#9aa3b2" opacity="0.4"/>
<circle cx="527.6" cy="288.7" r="2.4" fill="#15a34a" opacity="0.55"/>
<path d="M 391.3 51 l 3 5 l -6 0 z" fill="#dc2626" opacity="0.16"/>
<circle cx="591.6" cy="285.5" r="2.4" fill="#15a34a" opacity="0.55"/>
<path d="M 605.1 51 l 3 5 l -6 0 z" fill="#dc2626" opacity="0.16"/>
<circle cx="555.5" cy="299.1" r="2.4" fill="#15a34a" opacity="0.55"/>
<path d="M 400.2 51 l 3 5 l -6 0 z" fill="#dc2626" opacity="0.16"/>
<path d="M 149.4 51 l 3 5 l -6 0 z" fill="#dc2626" opacity="0.16"/>
<circle cx="501.5" cy="145.2" r="2.4" fill="#9aa3b2" opacity="0.4"/>
<path d="M 492.0 51 l 3 5 l -6 0 z" fill="#dc2626" opacity="0.16"/>
<circle cx="151.7" cy="205.6" r="2.4" fill="#9aa3b2" opacity="0.4"/>
<circle cx="204.5" cy="65.9" r="2.4" fill="#9aa3b2" opacity="0.4"/>
<circle cx="330.3" cy="266.9" r="2.4" fill="#9aa3b2" opacity="0.4"/>
<path d="M 111.5 51 l 3 5 l -6 0 z" fill="#dc2626" opacity="0.16"/>
<circle cx="255.3" cy="290.9" r="2.4" fill="#15a34a" opacity="0.55"/>
<path d="M 558.3 51 l 3 5 l -6 0 z" fill="#dc2626" opacity="0.16"/>
<path d="M 308.3 51 l 3 5 l -6 0 z" fill="#dc2626" opacity="0.16"/>
<circle cx="603.9" cy="71.1" r="2.4" fill="#9aa3b2" opacity="0.4"/>
<circle cx="528.6" cy="290.3" r="2.4" fill="#15a34a" opacity="0.55"/>
<path d="M 379.3 51 l 3 5 l -6 0 z" fill="#dc2626" opacity="0.16"/>
<circle cx="582.9" cy="285.4" r="2.4" fill="#15a34a" opacity="0.55"/>
<path d="M 467.0 51 l 3 5 l -6 0 z" fill="#dc2626" opacity="0.16"/>
<circle cx="511.9" cy="285.5" r="2.4" fill="#15a34a" opacity="0.55"/>
<circle cx="338.4" cy="176.1" r="2.4" fill="#9aa3b2" opacity="0.4"/>
<path d="M 682.7 51 l 3 5 l -6 0 z" fill="#dc2626" opacity="0.16"/>
<path d="M 511.7 51 l 3 5 l -6 0 z" fill="#dc2626" opacity="0.16"/>
<circle cx="537.5" cy="285.3" r="2.4" fill="#9aa3b2" opacity="0.4"/>
<circle cx="249.2" cy="252.2" r="2.4" fill="#9aa3b2" opacity="0.4"/>
<circle cx="117.0" cy="315.0" r="2.4" fill="#15a34a" opacity="0.55"/>
<path d="M 566.1 51 l 3 5 l -6 0 z" fill="#dc2626" opacity="0.16"/>
<path d="M 566.4 51 l 3 5 l -6 0 z" fill="#dc2626" opacity="0.16"/>
<path d="M 410.8 51 l 3 5 l -6 0 z" fill="#dc2626" opacity="0.16"/>
<path d="M 313.6 51 l 3 5 l -6 0 z" fill="#dc2626" opacity="0.16"/>
<path d="M 559.8 51 l 3 5 l -6 0 z" fill="#dc2626" opacity="0.16"/>
<circle cx="169.1" cy="224.3" r="2.4" fill="#9aa3b2" opacity="0.4"/>
<circle cx="441.6" cy="285.5" r="2.4" fill="#15a34a" opacity="0.55"/>
<path d="M 352.8 51 l 3 5 l -6 0 z" fill="#dc2626" opacity="0.16"/>
<path d="M 512.3 51 l 3 5 l -6 0 z" fill="#dc2626" opacity="0.16"/>
<path d="M 386.1 51 l 3 5 l -6 0 z" fill="#dc2626" opacity="0.16"/>
<circle cx="526.1" cy="285.3" r="2.4" fill="#9aa3b2" opacity="0.4"/>
<path d="M 675.9 51 l 3 5 l -6 0 z" fill="#dc2626" opacity="0.16"/>
<path d="M 475.5 51 l 3 5 l -6 0 z" fill="#dc2626" opacity="0.16"/>
<path d="M 388.6 51 l 3 5 l -6 0 z" fill="#dc2626" opacity="0.16"/>
<circle cx="600.9" cy="285.3" r="2.4" fill="#9aa3b2" opacity="0.4"/>
<path d="M 343.5 51 l 3 5 l -6 0 z" fill="#dc2626" opacity="0.16"/>
<path d="M 368.3 51 l 3 5 l -6 0 z" fill="#dc2626" opacity="0.16"/>
<path d="M 193.0 51 l 3 5 l -6 0 z" fill="#dc2626" opacity="0.16"/>
<circle cx="438.0" cy="285.5" r="2.4" fill="#15a34a" opacity="0.55"/>
<circle cx="603.2" cy="122.8" r="2.4" fill="#9aa3b2" opacity="0.4"/>
<circle cx="426.5" cy="285.5" r="2.4" fill="#15a34a" opacity="0.55"/>
<circle cx="514.7" cy="285.7" r="2.4" fill="#15a34a" opacity="0.55"/>
<path d="M 454.7 51 l 3 5 l -6 0 z" fill="#dc2626" opacity="0.16"/>
<path d="M 597.5 51 l 3 5 l -6 0 z" fill="#dc2626" opacity="0.16"/>
<path d="M 663.0 51 l 3 5 l -6 0 z" fill="#dc2626" opacity="0.16"/>
<path d="M 597.1 51 l 3 5 l -6 0 z" fill="#dc2626" opacity="0.16"/>
<circle cx="313.0" cy="168.5" r="2.4" fill="#9aa3b2" opacity="0.4"/>
<path d="M 547.3 51 l 3 5 l -6 0 z" fill="#dc2626" opacity="0.16"/>
<path d="M 184.8 51 l 3 5 l -6 0 z" fill="#dc2626" opacity="0.16"/>
<path d="M 402.8 51 l 3 5 l -6 0 z" fill="#dc2626" opacity="0.16"/>
<path d="M 479.7 51 l 3 5 l -6 0 z" fill="#dc2626" opacity="0.16"/>
<path d="M 562.8 51 l 3 5 l -6 0 z" fill="#dc2626" opacity="0.16"/>
<circle cx="535.0" cy="285.3" r="2.4" fill="#9aa3b2" opacity="0.4"/>
<circle cx="556.8" cy="292.5" r="2.4" fill="#15a34a" opacity="0.55"/>
<path d="M 499.6 51 l 3 5 l -6 0 z" fill="#dc2626" opacity="0.16"/>
<path d="M 352.6 51 l 3 5 l -6 0 z" fill="#dc2626" opacity="0.16"/>
<circle cx="266.1" cy="298.2" r="2.4" fill="#15a34a" opacity="0.55"/>
<circle cx="335.4" cy="195.9" r="2.4" fill="#9aa3b2" opacity="0.4"/>
<path d="M 473.3 51 l 3 5 l -6 0 z" fill="#dc2626" opacity="0.16"/>
<path d="M 423.1 51 l 3 5 l -6 0 z" fill="#dc2626" opacity="0.16"/>
<circle cx="452.8" cy="285.4" r="2.4" fill="#15a34a" opacity="0.55"/>
<circle cx="421.9" cy="290.8" r="2.4" fill="#15a34a" opacity="0.55"/>
<circle cx="613.0" cy="285.4" r="2.4" fill="#15a34a" opacity="0.55"/>
<path d="M 652.8 51 l 3 5 l -6 0 z" fill="#dc2626" opacity="0.16"/>
<circle cx="462.7" cy="285.3" r="2.4" fill="#9aa3b2" opacity="0.4"/>
<path d="M 525.0 51 l 3 5 l -6 0 z" fill="#dc2626" opacity="0.16"/>
<path d="M 491.1 51 l 3 5 l -6 0 z" fill="#dc2626" opacity="0.16"/>
<circle cx="481.2" cy="290.6" r="2.4" fill="#15a34a" opacity="0.55"/>
<path d="M 664.9 51 l 3 5 l -6 0 z" fill="#dc2626" opacity="0.16"/>
<circle cx="193.7" cy="289.1" r="2.4" fill="#15a34a" opacity="0.55"/>
<circle cx="560.2" cy="78.3" r="2.4" fill="#9aa3b2" opacity="0.4"/>
<path d="M 317.8 51 l 3 5 l -6 0 z" fill="#dc2626" opacity="0.16"/>
<path d="M 257.2 51 l 3 5 l -6 0 z" fill="#dc2626" opacity="0.16"/>
<circle cx="417.8" cy="285.5" r="2.4" fill="#15a34a" opacity="0.55"/>
<path d="M 437.1 51 l 3 5 l -6 0 z" fill="#dc2626" opacity="0.16"/>
<circle cx="641.6" cy="286.1" r="2.4" fill="#15a34a" opacity="0.55"/>
<path d="M 475.2 51 l 3 5 l -6 0 z" fill="#dc2626" opacity="0.16"/>
<circle cx="165.9" cy="149.5" r="2.4" fill="#9aa3b2" opacity="0.4"/>
<circle cx="511.5" cy="289.8" r="2.4" fill="#15a34a" opacity="0.55"/>
<path d="M 598.1 51 l 3 5 l -6 0 z" fill="#dc2626" opacity="0.16"/>
<circle cx="351.5" cy="285.5" r="2.4" fill="#15a34a" opacity="0.55"/>
<path d="M 475.9 51 l 3 5 l -6 0 z" fill="#dc2626" opacity="0.16"/>
<path d="M 461.9 51 l 3 5 l -6 0 z" fill="#dc2626" opacity="0.16"/>
<circle cx="646.7" cy="285.3" r="2.4" fill="#9aa3b2" opacity="0.4"/>
<path d="M 284.6 51 l 3 5 l -6 0 z" fill="#dc2626" opacity="0.16"/>
<path d="M 524.8 51 l 3 5 l -6 0 z" fill="#dc2626" opacity="0.16"/>
<path d="M 219.7 51 l 3 5 l -6 0 z" fill="#dc2626" opacity="0.16"/>
<circle cx="225.2" cy="155.1" r="2.4" fill="#9aa3b2" opacity="0.4"/>
<circle cx="404.5" cy="217.5" r="2.4" fill="#9aa3b2" opacity="0.4"/>
<circle cx="542.4" cy="136.7" r="2.4" fill="#9aa3b2" opacity="0.4"/>
<path d="M 389.4 51 l 3 5 l -6 0 z" fill="#dc2626" opacity="0.16"/>
<path d="M 238.6 51 l 3 5 l -6 0 z" fill="#dc2626" opacity="0.16"/>
<circle cx="685.9" cy="285.3" r="2.4" fill="#9aa3b2" opacity="0.4"/>
<circle cx="553.6" cy="113.2" r="2.4" fill="#9aa3b2" opacity="0.4"/>
<path d="M 404.7 51 l 3 5 l -6 0 z" fill="#dc2626" opacity="0.16"/>
<circle cx="710.2" cy="285.3" r="2.4" fill="#9aa3b2" opacity="0.4"/>
<circle cx="412.5" cy="197.6" r="2.4" fill="#9aa3b2" opacity="0.4"/>
<path d="M 611.3 51 l 3 5 l -6 0 z" fill="#dc2626" opacity="0.16"/>
<circle cx="480.5" cy="296.5" r="2.4" fill="#15a34a" opacity="0.55"/>
<circle cx="500.3" cy="290.3" r="2.4" fill="#15a34a" opacity="0.55"/>
<path d="M 371.6 51 l 3 5 l -6 0 z" fill="#dc2626" opacity="0.16"/>
<circle cx="535.6" cy="285.3" r="2.4" fill="#9aa3b2" opacity="0.4"/>
<path d="M 440.9 51 l 3 5 l -6 0 z" fill="#dc2626" opacity="0.16"/>
<circle cx="195.8" cy="281.5" r="2.4" fill="#9aa3b2" opacity="0.4"/>
<circle cx="568.7" cy="243.8" r="2.4" fill="#9aa3b2" opacity="0.4"/>
<circle cx="668.5" cy="285.3" r="2.4" fill="#9aa3b2" opacity="0.4"/>
<path d="M 217.6 51 l 3 5 l -6 0 z" fill="#dc2626" opacity="0.16"/>
<circle cx="427.6" cy="282.5" r="2.4" fill="#9aa3b2" opacity="0.4"/>
<path d="M 312.1 51 l 3 5 l -6 0 z" fill="#dc2626" opacity="0.16"/>
<circle cx="220.4" cy="295.3" r="2.4" fill="#15a34a" opacity="0.55"/>
<circle cx="588.6" cy="282.9" r="2.4" fill="#9aa3b2" opacity="0.4"/>
<circle cx="539.0" cy="285.3" r="2.4" fill="#9aa3b2" opacity="0.4"/>
<path d="M 295.8 51 l 3 5 l -6 0 z" fill="#dc2626" opacity="0.16"/>
<circle cx="559.8" cy="245.4" r="2.4" fill="#9aa3b2" opacity="0.4"/>
<path d="M 534.4 51 l 3 5 l -6 0 z" fill="#dc2626" opacity="0.16"/>
<circle cx="521.4" cy="284.5" r="2.4" fill="#9aa3b2" opacity="0.4"/>
<path d="M 243.0 51 l 3 5 l -6 0 z" fill="#dc2626" opacity="0.16"/>
<circle cx="543.0" cy="285.3" r="2.4" fill="#9aa3b2" opacity="0.4"/>
<path d="M 242.0 51 l 3 5 l -6 0 z" fill="#dc2626" opacity="0.16"/>
<circle cx="194.3" cy="169.9" r="2.4" fill="#9aa3b2" opacity="0.4"/>
<circle cx="439.0" cy="285.4" r="2.4" fill="#15a34a" opacity="0.55"/>
<circle cx="515.7" cy="285.3" r="2.4" fill="#9aa3b2" opacity="0.4"/>
<circle cx="564.7" cy="285.9" r="2.4" fill="#15a34a" opacity="0.55"/>
<path d="M 354.3 51 l 3 5 l -6 0 z" fill="#dc2626" opacity="0.16"/>
<path d="M 274.6 51 l 3 5 l -6 0 z" fill="#dc2626" opacity="0.16"/>
<circle cx="170.1" cy="220.7" r="2.4" fill="#9aa3b2" opacity="0.4"/>
<circle cx="526.5" cy="259.7" r="2.4" fill="#9aa3b2" opacity="0.4"/>
<circle cx="439.7" cy="285.1" r="2.4" fill="#9aa3b2" opacity="0.4"/>
<circle cx="662.1" cy="285.3" r="2.4" fill="#9aa3b2" opacity="0.4"/>
<circle cx="555.3" cy="285.3" r="2.4" fill="#9aa3b2" opacity="0.4"/>
<path d="M 393.3 51 l 3 5 l -6 0 z" fill="#dc2626" opacity="0.16"/>
<circle cx="506.8" cy="285.3" r="2.4" fill="#9aa3b2" opacity="0.4"/>
<path d="M 193.9 51 l 3 5 l -6 0 z" fill="#dc2626" opacity="0.16"/>
<circle cx="335.2" cy="81.5" r="2.4" fill="#9aa3b2" opacity="0.4"/>
<circle cx="376.1" cy="255.9" r="2.4" fill="#9aa3b2" opacity="0.4"/>
<circle cx="595.2" cy="199.6" r="2.4" fill="#9aa3b2" opacity="0.4"/>
<path d="M 373.5 51 l 3 5 l -6 0 z" fill="#dc2626" opacity="0.16"/>
<circle cx="258.1" cy="285.7" r="2.4" fill="#15a34a" opacity="0.55"/>
<circle cx="212.5" cy="179.9" r="2.4" fill="#9aa3b2" opacity="0.4"/>
<circle cx="204.5" cy="224.2" r="2.4" fill="#9aa3b2" opacity="0.4"/>
<path d="M 382.0 51 l 3 5 l -6 0 z" fill="#dc2626" opacity="0.16"/>
<circle cx="532.0" cy="285.5" r="2.4" fill="#15a34a" opacity="0.55"/>
<circle cx="369.9" cy="285.6" r="2.4" fill="#15a34a" opacity="0.55"/>
<path d="M 715.1 51 l 3 5 l -6 0 z" fill="#dc2626" opacity="0.16"/>
<path d="M 265.7 51 l 3 5 l -6 0 z" fill="#dc2626" opacity="0.16"/>
<path d="M 436.3 51 l 3 5 l -6 0 z" fill="#dc2626" opacity="0.16"/>
<path d="M 403.6 51 l 3 5 l -6 0 z" fill="#dc2626" opacity="0.16"/>
<circle cx="539.4" cy="285.3" r="2.4" fill="#9aa3b2" opacity="0.4"/>
<circle cx="583.3" cy="206.3" r="2.4" fill="#9aa3b2" opacity="0.4"/>
<circle cx="612.1" cy="285.5" r="2.4" fill="#15a34a" opacity="0.55"/>
<circle cx="455.3" cy="131.0" r="2.4" fill="#9aa3b2" opacity="0.4"/>
<circle cx="556.8" cy="285.4" r="2.4" fill="#15a34a" opacity="0.55"/>
<circle cx="319.7" cy="282.4" r="2.4" fill="#9aa3b2" opacity="0.4"/>
<circle cx="345.8" cy="286.5" r="2.4" fill="#15a34a" opacity="0.55"/>
<circle cx="607.0" cy="285.3" r="2.4" fill="#9aa3b2" opacity="0.4"/>
<circle cx="349.6" cy="291.0" r="2.4" fill="#15a34a" opacity="0.55"/>
<circle cx="274.0" cy="269.2" r="2.4" fill="#9aa3b2" opacity="0.4"/>
<circle cx="355.8" cy="285.8" r="2.4" fill="#15a34a" opacity="0.55"/>
<path d="M 230.5 51 l 3 5 l -6 0 z" fill="#dc2626" opacity="0.16"/>
<circle cx="647.5" cy="146.1" r="2.4" fill="#9aa3b2" opacity="0.4"/>
<path d="M 425.7 51 l 3 5 l -6 0 z" fill="#dc2626" opacity="0.16"/>
<circle cx="409.1" cy="296.6" r="2.4" fill="#15a34a" opacity="0.55"/>
<path d="M 523.8 51 l 3 5 l -6 0 z" fill="#dc2626" opacity="0.16"/>
<path d="M 408.5 51 l 3 5 l -6 0 z" fill="#dc2626" opacity="0.16"/>
<path d="M 439.7 51 l 3 5 l -6 0 z" fill="#dc2626" opacity="0.16"/>
<path d="M 469.5 51 l 3 5 l -6 0 z" fill="#dc2626" opacity="0.16"/>
<path d="M 531.8 51 l 3 5 l -6 0 z" fill="#dc2626" opacity="0.16"/>
<path d="M 415.9 51 l 3 5 l -6 0 z" fill="#dc2626" opacity="0.16"/>
<circle cx="500.9" cy="300.4" r="2.4" fill="#15a34a" opacity="0.55"/>
<path d="M 658.9 51 l 3 5 l -6 0 z" fill="#dc2626" opacity="0.16"/>
<path d="M 397.3 51 l 3 5 l -6 0 z" fill="#dc2626" opacity="0.16"/>
<path d="M 620.4 51 l 3 5 l -6 0 z" fill="#dc2626" opacity="0.16"/>
<circle cx="295.8" cy="189.1" r="2.4" fill="#9aa3b2" opacity="0.4"/>
<circle cx="540.3" cy="69.6" r="2.4" fill="#9aa3b2" opacity="0.4"/>
<path d="M 548.6 51 l 3 5 l -6 0 z" fill="#dc2626" opacity="0.16"/>
<path d="M 430.5 51 l 3 5 l -6 0 z" fill="#dc2626" opacity="0.16"/>
<path d="M 168.0 51 l 3 5 l -6 0 z" fill="#dc2626" opacity="0.16"/>
<circle cx="413.8" cy="105.6" r="2.4" fill="#9aa3b2" opacity="0.4"/>
<path d="M 346.9 51 l 3 5 l -6 0 z" fill="#dc2626" opacity="0.16"/>
<path d="M 527.4 51 l 3 5 l -6 0 z" fill="#dc2626" opacity="0.16"/>
<circle cx="431.8" cy="285.3" r="2.4" fill="#9aa3b2" opacity="0.4"/>
<circle cx="359.1" cy="214.2" r="2.4" fill="#9aa3b2" opacity="0.4"/>
<circle cx="170.8" cy="196.0" r="2.4" fill="#9aa3b2" opacity="0.4"/>
<path d="M 550.5 51 l 3 5 l -6 0 z" fill="#dc2626" opacity="0.16"/>
<circle cx="561.3" cy="288.7" r="2.4" fill="#15a34a" opacity="0.55"/>
<circle cx="334.6" cy="285.3" r="2.4" fill="#9aa3b2" opacity="0.4"/>
<path d="M 243.5 51 l 3 5 l -6 0 z" fill="#dc2626" opacity="0.16"/>
<path d="M 428.8 51 l 3 5 l -6 0 z" fill="#dc2626" opacity="0.16"/>
<path d="M 498.8 51 l 3 5 l -6 0 z" fill="#dc2626" opacity="0.16"/>
<path d="M 438.2 51 l 3 5 l -6 0 z" fill="#dc2626" opacity="0.16"/>
<path d="M 575.7 51 l 3 5 l -6 0 z" fill="#dc2626" opacity="0.16"/>
<path d="M 258.5 51 l 3 5 l -6 0 z" fill="#dc2626" opacity="0.16"/>
<circle cx="641.8" cy="161.4" r="2.4" fill="#9aa3b2" opacity="0.4"/>
<circle cx="560.0" cy="190.0" r="2.4" fill="#9aa3b2" opacity="0.4"/>
<circle cx="453.2" cy="285.3" r="2.4" fill="#9aa3b2" opacity="0.4"/>
<path d="M 602.4 51 l 3 5 l -6 0 z" fill="#dc2626" opacity="0.16"/>
<path d="M 434.8 51 l 3 5 l -6 0 z" fill="#dc2626" opacity="0.16"/>
<circle cx="597.5" cy="285.4" r="2.4" fill="#15a34a" opacity="0.55"/>
<path d="M 465.7 51 l 3 5 l -6 0 z" fill="#dc2626" opacity="0.16"/>
<circle cx="378.4" cy="222.4" r="2.4" fill="#9aa3b2" opacity="0.4"/>
<circle cx="377.2" cy="239.9" r="2.4" fill="#9aa3b2" opacity="0.4"/>
<circle cx="465.1" cy="285.5" r="2.4" fill="#15a34a" opacity="0.55"/>
<circle cx="471.4" cy="287.5" r="2.4" fill="#15a34a" opacity="0.55"/>
<circle cx="402.4" cy="146.1" r="2.4" fill="#9aa3b2" opacity="0.4"/>
<path d="M 457.9 51 l 3 5 l -6 0 z" fill="#dc2626" opacity="0.16"/>
<path d="M 569.7 51 l 3 5 l -6 0 z" fill="#dc2626" opacity="0.16"/>
<circle cx="520.4" cy="292.7" r="2.4" fill="#15a34a" opacity="0.55"/>
<path d="M 436.5 51 l 3 5 l -6 0 z" fill="#dc2626" opacity="0.16"/>
<path d="M 607.5 51 l 3 5 l -6 0 z" fill="#dc2626" opacity="0.16"/>
<path d="M 527.4 51 l 3 5 l -6 0 z" fill="#dc2626" opacity="0.16"/>
<path d="M 396.6 51 l 3 5 l -6 0 z" fill="#dc2626" opacity="0.16"/>
<path d="M 572.9 51 l 3 5 l -6 0 z" fill="#dc2626" opacity="0.16"/>
<circle cx="420.4" cy="276.2" r="2.4" fill="#9aa3b2" opacity="0.4"/>
<circle cx="215.7" cy="92.4" r="2.4" fill="#9aa3b2" opacity="0.4"/>
<path d="M 384.6 51 l 3 5 l -6 0 z" fill="#dc2626" opacity="0.16"/>
<circle cx="682.3" cy="285.6" r="2.4" fill="#15a34a" opacity="0.55"/>
<path d="M 542.4 51 l 3 5 l -6 0 z" fill="#dc2626" opacity="0.16"/>
<path d="M 646.4 51 l 3 5 l -6 0 z" fill="#dc2626" opacity="0.16"/>
<path d="M 676.1 51 l 3 5 l -6 0 z" fill="#dc2626" opacity="0.16"/>
<path d="M 658.9 51 l 3 5 l -6 0 z" fill="#dc2626" opacity="0.16"/>
<circle cx="329.3" cy="57.3" r="2.4" fill="#9aa3b2" opacity="0.4"/>
<path d="M 391.6 51 l 3 5 l -6 0 z" fill="#dc2626" opacity="0.16"/>
<circle cx="403.6" cy="285.3" r="2.4" fill="#9aa3b2" opacity="0.4"/>
<circle cx="444.7" cy="285.3" r="2.4" fill="#9aa3b2" opacity="0.4"/>
<circle cx="696.2" cy="285.8" r="2.4" fill="#15a34a" opacity="0.55"/>
<path d="M 268.5 51 l 3 5 l -6 0 z" fill="#dc2626" opacity="0.16"/>
<circle cx="674.4" cy="286.2" r="2.4" fill="#15a34a" opacity="0.55"/>
<circle cx="581.6" cy="286.2" r="2.4" fill="#15a34a" opacity="0.55"/>
<path d="M 559.6 51 l 3 5 l -6 0 z" fill="#dc2626" opacity="0.16"/>
<path d="M 567.0 51 l 3 5 l -6 0 z" fill="#dc2626" opacity="0.16"/>
<path d="M 506.4 51 l 3 5 l -6 0 z" fill="#dc2626" opacity="0.16"/>
<path d="M 622.5 51 l 3 5 l -6 0 z" fill="#dc2626" opacity="0.16"/>
<path d="M 387.5 51 l 3 5 l -6 0 z" fill="#dc2626" opacity="0.16"/>
<circle cx="454.5" cy="160.6" r="2.4" fill="#9aa3b2" opacity="0.4"/>
<path d="M 626.7 51 l 3 5 l -6 0 z" fill="#dc2626" opacity="0.16"/>
<path d="M 700.7 51 l 3 5 l -6 0 z" fill="#dc2626" opacity="0.16"/>
<path d="M 312.1 51 l 3 5 l -6 0 z" fill="#dc2626" opacity="0.16"/>
<circle cx="396.6" cy="303.0" r="2.4" fill="#15a34a" opacity="0.55"/>
<path d="M 611.5 51 l 3 5 l -6 0 z" fill="#dc2626" opacity="0.16"/>
<path d="M 508.3 51 l 3 5 l -6 0 z" fill="#dc2626" opacity="0.16"/>
<path d="M 576.1 51 l 3 5 l -6 0 z" fill="#dc2626" opacity="0.16"/>
<path d="M 550.9 51 l 3 5 l -6 0 z" fill="#dc2626" opacity="0.16"/>
<circle cx="258.9" cy="285.3" r="2.4" fill="#9aa3b2" opacity="0.4"/>
<path d="M 500.9 51 l 3 5 l -6 0 z" fill="#dc2626" opacity="0.16"/>
<path d="M 558.1 51 l 3 5 l -6 0 z" fill="#dc2626" opacity="0.16"/>
<circle cx="523.3" cy="285.6" r="2.4" fill="#15a34a" opacity="0.55"/>
<circle cx="555.1" cy="285.5" r="2.4" fill="#15a34a" opacity="0.55"/>
<circle cx="561.7" cy="252.3" r="2.4" fill="#9aa3b2" opacity="0.4"/>
<circle cx="445.0" cy="198.9" r="2.4" fill="#9aa3b2" opacity="0.4"/>
<path d="M 478.9 51 l 3 5 l -6 0 z" fill="#dc2626" opacity="0.16"/>
<path d="M 415.7 51 l 3 5 l -6 0 z" fill="#dc2626" opacity="0.16"/>
<circle cx="561.5" cy="285.3" r="2.4" fill="#9aa3b2" opacity="0.4"/>
<path d="M 339.9 51 l 3 5 l -6 0 z" fill="#dc2626" opacity="0.16"/>
<path d="M 526.5 51 l 3 5 l -6 0 z" fill="#dc2626" opacity="0.16"/>
<circle cx="374.6" cy="137.0" r="2.4" fill="#9aa3b2" opacity="0.4"/>
<circle cx="186.7" cy="98.4" r="2.4" fill="#9aa3b2" opacity="0.4"/>
<path d="M 303.0 51 l 3 5 l -6 0 z" fill="#dc2626" opacity="0.16"/>
<path d="M 331.4 51 l 3 5 l -6 0 z" fill="#dc2626" opacity="0.16"/>
<path d="M 157.4 51 l 3 5 l -6 0 z" fill="#dc2626" opacity="0.16"/>
<circle cx="579.5" cy="287.5" r="2.4" fill="#15a34a" opacity="0.55"/>
<path d="M 470.4 51 l 3 5 l -6 0 z" fill="#dc2626" opacity="0.16"/>
<path d="M 270.6 51 l 3 5 l -6 0 z" fill="#dc2626" opacity="0.16"/>
<path d="M 557.9 51 l 3 5 l -6 0 z" fill="#dc2626" opacity="0.16"/>
<path d="M 449.2 51 l 3 5 l -6 0 z" fill="#dc2626" opacity="0.16"/>
<path d="M 463.0 51 l 3 5 l -6 0 z" fill="#dc2626" opacity="0.16"/>
<path d="M 412.7 51 l 3 5 l -6 0 z" fill="#dc2626" opacity="0.16"/>
<path d="M 602.8 51 l 3 5 l -6 0 z" fill="#dc2626" opacity="0.16"/>
<path d="M 243.7 51 l 3 5 l -6 0 z" fill="#dc2626" opacity="0.16"/>
<circle cx="589.2" cy="271.3" r="2.4" fill="#9aa3b2" opacity="0.4"/>
<path d="M 493.9 51 l 3 5 l -6 0 z" fill="#dc2626" opacity="0.16"/>
<circle cx="562.3" cy="237.6" r="2.4" fill="#9aa3b2" opacity="0.4"/>
<circle cx="424.8" cy="253.7" r="2.4" fill="#9aa3b2" opacity="0.4"/>
<circle cx="267.2" cy="302.7" r="2.4" fill="#15a34a" opacity="0.55"/>
<circle cx="586.1" cy="285.3" r="2.4" fill="#9aa3b2" opacity="0.4"/>
<circle cx="576.9" cy="252.3" r="2.4" fill="#9aa3b2" opacity="0.4"/>
<path d="M 672.1 51 l 3 5 l -6 0 z" fill="#dc2626" opacity="0.16"/>
<circle cx="456.4" cy="289.1" r="2.4" fill="#15a34a" opacity="0.55"/>
<circle cx="656.0" cy="285.4" r="2.4" fill="#15a34a" opacity="0.55"/>
<path d="M 511.5 51 l 3 5 l -6 0 z" fill="#dc2626" opacity="0.16"/>
<circle cx="606.4" cy="146.5" r="2.4" fill="#9aa3b2" opacity="0.4"/>
<circle cx="245.6" cy="291.3" r="2.4" fill="#15a34a" opacity="0.55"/>
<circle cx="467.2" cy="81.7" r="2.4" fill="#9aa3b2" opacity="0.4"/>
<circle cx="658.3" cy="285.3" r="2.4" fill="#9aa3b2" opacity="0.4"/>
<path d="M 553.4 51 l 3 5 l -6 0 z" fill="#dc2626" opacity="0.16"/>
<path d="M 309.4 51 l 3 5 l -6 0 z" fill="#dc2626" opacity="0.16"/>
<path d="M 521.2 51 l 3 5 l -6 0 z" fill="#dc2626" opacity="0.16"/>
<path d="M 530.3 51 l 3 5 l -6 0 z" fill="#dc2626" opacity="0.16"/>
<path d="M 497.7 51 l 3 5 l -6 0 z" fill="#dc2626" opacity="0.16"/>
<path d="M 327.8 51 l 3 5 l -6 0 z" fill="#dc2626" opacity="0.16"/>
<circle cx="488.2" cy="285.4" r="2.4" fill="#15a34a" opacity="0.55"/>
<circle cx="333.5" cy="288.4" r="2.4" fill="#15a34a" opacity="0.55"/>
<circle cx="380.3" cy="286.0" r="2.4" fill="#15a34a" opacity="0.55"/>
<path d="M 137.9 51 l 3 5 l -6 0 z" fill="#dc2626" opacity="0.16"/>
<path d="M 546.2 51 l 3 5 l -6 0 z" fill="#dc2626" opacity="0.16"/>
<circle cx="305.7" cy="277.8" r="2.4" fill="#9aa3b2" opacity="0.4"/>
<circle cx="611.1" cy="285.3" r="2.4" fill="#9aa3b2" opacity="0.4"/>
<circle cx="518.0" cy="285.3" r="2.4" fill="#9aa3b2" opacity="0.4"/>
<circle cx="572.3" cy="287.2" r="2.4" fill="#15a34a" opacity="0.55"/>
<circle cx="718.9" cy="285.3" r="2.4" fill="#9aa3b2" opacity="0.4"/>
<circle cx="551.5" cy="285.3" r="2.4" fill="#9aa3b2" opacity="0.4"/>
<path d="M 463.0 51 l 3 5 l -6 0 z" fill="#dc2626" opacity="0.16"/>
<path d="M 517.6 51 l 3 5 l -6 0 z" fill="#dc2626" opacity="0.16"/>
<circle cx="225.7" cy="216.1" r="2.4" fill="#9aa3b2" opacity="0.4"/>
<circle cx="621.0" cy="285.3" r="2.4" fill="#9aa3b2" opacity="0.4"/>
<circle cx="472.3" cy="283.6" r="2.4" fill="#9aa3b2" opacity="0.4"/>
<circle cx="576.5" cy="285.3" r="2.4" fill="#9aa3b2" opacity="0.4"/>
<path d="M 112.1 51 l 3 5 l -6 0 z" fill="#dc2626" opacity="0.16"/>
<circle cx="344.3" cy="288.1" r="2.4" fill="#15a34a" opacity="0.55"/>
<path d="M 558.5 51 l 3 5 l -6 0 z" fill="#dc2626" opacity="0.16"/>
<path d="M 507.5 51 l 3 5 l -6 0 z" fill="#dc2626" opacity="0.16"/>
<path d="M 606.2 51 l 3 5 l -6 0 z" fill="#dc2626" opacity="0.16"/>
<circle cx="426.9" cy="286.1" r="2.4" fill="#15a34a" opacity="0.55"/>
<path d="M 335.6 51 l 3 5 l -6 0 z" fill="#dc2626" opacity="0.16"/>
<path d="M 495.4 51 l 3 5 l -6 0 z" fill="#dc2626" opacity="0.16"/>
<path d="M 624.0 51 l 3 5 l -6 0 z" fill="#dc2626" opacity="0.16"/>
<circle cx="336.7" cy="279.7" r="2.4" fill="#9aa3b2" opacity="0.4"/>
<path d="M 582.0 51 l 3 5 l -6 0 z" fill="#dc2626" opacity="0.16"/>
<circle cx="570.8" cy="286.6" r="2.4" fill="#15a34a" opacity="0.55"/>
<circle cx="474.6" cy="285.3" r="2.4" fill="#9aa3b2" opacity="0.4"/>
<circle cx="362.1" cy="238.3" r="2.4" fill="#9aa3b2" opacity="0.4"/>
<path d="M 401.7 51 l 3 5 l -6 0 z" fill="#dc2626" opacity="0.16"/>
<path d="M 582.9 51 l 3 5 l -6 0 z" fill="#dc2626" opacity="0.16"/>
<path d="M 487.1 51 l 3 5 l -6 0 z" fill="#dc2626" opacity="0.16"/>
<path d="M 409.4 51 l 3 5 l -6 0 z" fill="#dc2626" opacity="0.16"/>
<path d="M 582.0 51 l 3 5 l -6 0 z" fill="#dc2626" opacity="0.16"/>
<circle cx="560.0" cy="276.3" r="2.4" fill="#9aa3b2" opacity="0.4"/>
<circle cx="371.2" cy="288.2" r="2.4" fill="#15a34a" opacity="0.55"/>
<circle cx="412.7" cy="285.6" r="2.4" fill="#15a34a" opacity="0.55"/>
<circle cx="497.9" cy="285.4" r="2.4" fill="#15a34a" opacity="0.55"/>
<path d="M 568.5 51 l 3 5 l -6 0 z" fill="#dc2626" opacity="0.16"/>
<circle cx="342.2" cy="285.5" r="2.4" fill="#15a34a" opacity="0.55"/>
<circle cx="642.6" cy="285.4" r="2.4" fill="#15a34a" opacity="0.55"/>
<circle cx="534.2" cy="294.7" r="2.4" fill="#15a34a" opacity="0.55"/>
<path d="M 280.1 51 l 3 5 l -6 0 z" fill="#dc2626" opacity="0.16"/>
<circle cx="483.5" cy="288.2" r="2.4" fill="#15a34a" opacity="0.55"/>
<path d="M 609.8 51 l 3 5 l -6 0 z" fill="#dc2626" opacity="0.16"/>
<circle cx="552.6" cy="125.3" r="2.4" fill="#9aa3b2" opacity="0.4"/>
<circle cx="439.0" cy="210.7" r="2.4" fill="#9aa3b2" opacity="0.4"/>
<circle cx="501.7" cy="267.4" r="2.4" fill="#9aa3b2" opacity="0.4"/>
<circle cx="696.7" cy="290.4" r="2.4" fill="#15a34a" opacity="0.55"/>
<path d="M 224.8 51 l 3 5 l -6 0 z" fill="#dc2626" opacity="0.16"/>
<circle cx="156.2" cy="81.7" r="2.4" fill="#9aa3b2" opacity="0.4"/>
<circle cx="373.5" cy="280.0" r="2.4" fill="#9aa3b2" opacity="0.4"/>
<circle cx="348.5" cy="238.3" r="2.4" fill="#9aa3b2" opacity="0.4"/>
<circle cx="308.3" cy="233.8" r="2.4" fill="#9aa3b2" opacity="0.4"/>
<path d="M 525.3 51 l 3 5 l -6 0 z" fill="#dc2626" opacity="0.16"/>
<path d="M 259.8 51 l 3 5 l -6 0 z" fill="#dc2626" opacity="0.16"/>
<path d="M 557.9 51 l 3 5 l -6 0 z" fill="#dc2626" opacity="0.16"/>
<path d="M 481.4 51 l 3 5 l -6 0 z" fill="#dc2626" opacity="0.16"/>
<path d="M 325.2 51 l 3 5 l -6 0 z" fill="#dc2626" opacity="0.16"/>
<circle cx="571.0" cy="285.3" r="2.4" fill="#9aa3b2" opacity="0.4"/>
<path d="M 535.0 51 l 3 5 l -6 0 z" fill="#dc2626" opacity="0.16"/>
<circle cx="134.1" cy="108.1" r="2.4" fill="#9aa3b2" opacity="0.4"/>
<path d="M 697.7 51 l 3 5 l -6 0 z" fill="#dc2626" opacity="0.16"/>
<path d="M 640.7 51 l 3 5 l -6 0 z" fill="#dc2626" opacity="0.16"/>
<path d="M 563.8 51 l 3 5 l -6 0 z" fill="#dc2626" opacity="0.16"/>
<circle cx="527.6" cy="285.4" r="2.4" fill="#15a34a" opacity="0.55"/>
<circle cx="470.2" cy="286.4" r="2.4" fill="#15a34a" opacity="0.55"/>
<circle cx="391.1" cy="252.1" r="2.4" fill="#9aa3b2" opacity="0.4"/>
<path d="M 360.4 51 l 3 5 l -6 0 z" fill="#dc2626" opacity="0.16"/>
<path d="M 158.7 51 l 3 5 l -6 0 z" fill="#dc2626" opacity="0.16"/>
<circle cx="578.0" cy="299.1" r="2.4" fill="#15a34a" opacity="0.55"/>
<circle cx="576.9" cy="285.5" r="2.4" fill="#15a34a" opacity="0.55"/>
<path d="M 536.7 51 l 3 5 l -6 0 z" fill="#dc2626" opacity="0.16"/>
<circle cx="589.0" cy="285.3" r="2.4" fill="#9aa3b2" opacity="0.4"/>
<circle cx="612.1" cy="285.3" r="2.4" fill="#9aa3b2" opacity="0.4"/>
<path d="M 444.3 51 l 3 5 l -6 0 z" fill="#dc2626" opacity="0.16"/>
<circle cx="573.1" cy="264.6" r="2.4" fill="#9aa3b2" opacity="0.4"/>
<path d="M 505.3 51 l 3 5 l -6 0 z" fill="#dc2626" opacity="0.16"/>
<path d="M 555.8 51 l 3 5 l -6 0 z" fill="#dc2626" opacity="0.16"/>
<path d="M 352.4 51 l 3 5 l -6 0 z" fill="#dc2626" opacity="0.16"/>
<path d="M 247.1 51 l 3 5 l -6 0 z" fill="#dc2626" opacity="0.16"/>
<circle cx="442.0" cy="299.2" r="2.4" fill="#15a34a" opacity="0.55"/>
<path d="M 252.8 51 l 3 5 l -6 0 z" fill="#dc2626" opacity="0.16"/>
<circle cx="622.3" cy="285.3" r="2.4" fill="#9aa3b2" opacity="0.4"/>
<path d="M 368.0 51 l 3 5 l -6 0 z" fill="#dc2626" opacity="0.16"/>
<path d="M 267.6 51 l 3 5 l -6 0 z" fill="#dc2626" opacity="0.16"/>
<path d="M 310.8 51 l 3 5 l -6 0 z" fill="#dc2626" opacity="0.16"/>
<circle cx="547.5" cy="288.0" r="2.4" fill="#15a34a" opacity="0.55"/>
<circle cx="98.1" cy="212.4" r="2.4" fill="#9aa3b2" opacity="0.4"/>
<path d="M 482.2 51 l 3 5 l -6 0 z" fill="#dc2626" opacity="0.16"/>
<path d="M 465.9 51 l 3 5 l -6 0 z" fill="#dc2626" opacity="0.16"/>
<path d="M 499.2 51 l 3 5 l -6 0 z" fill="#dc2626" opacity="0.16"/>
<path d="M 589.9 51 l 3 5 l -6 0 z" fill="#dc2626" opacity="0.16"/>
<path d="M 256.6 51 l 3 5 l -6 0 z" fill="#dc2626" opacity="0.16"/>
<path d="M 462.3 51 l 3 5 l -6 0 z" fill="#dc2626" opacity="0.16"/>
<path d="M 375.7 51 l 3 5 l -6 0 z" fill="#dc2626" opacity="0.16"/>
<circle cx="439.4" cy="285.3" r="2.4" fill="#9aa3b2" opacity="0.4"/>
<circle cx="442.6" cy="285.3" r="2.4" fill="#9aa3b2" opacity="0.4"/>
<path d="M 557.9 51 l 3 5 l -6 0 z" fill="#dc2626" opacity="0.16"/>
<circle cx="273.1" cy="286.6" r="2.4" fill="#15a34a" opacity="0.55"/>
<path d="M 543.5 51 l 3 5 l -6 0 z" fill="#dc2626" opacity="0.16"/>
<path d="M 592.2 51 l 3 5 l -6 0 z" fill="#dc2626" opacity="0.16"/>
<path d="M 367.2 51 l 3 5 l -6 0 z" fill="#dc2626" opacity="0.16"/>
<path d="M 527.8 51 l 3 5 l -6 0 z" fill="#dc2626" opacity="0.16"/>
<circle cx="568.9" cy="290.7" r="2.4" fill="#15a34a" opacity="0.55"/>
<path d="M 572.3 51 l 3 5 l -6 0 z" fill="#dc2626" opacity="0.16"/>
<path d="M 598.8 51 l 3 5 l -6 0 z" fill="#dc2626" opacity="0.16"/>
<circle cx="623.1" cy="285.9" r="2.4" fill="#15a34a" opacity="0.55"/>
<circle cx="405.1" cy="285.3" r="2.4" fill="#9aa3b2" opacity="0.4"/>
<path d="M 390.5 51 l 3 5 l -6 0 z" fill="#dc2626" opacity="0.16"/>
<circle cx="660.0" cy="285.3" r="2.4" fill="#9aa3b2" opacity="0.4"/>
<path d="M 588.0 51 l 3 5 l -6 0 z" fill="#dc2626" opacity="0.16"/>
<path d="M 436.5 51 l 3 5 l -6 0 z" fill="#dc2626" opacity="0.16"/>
<path d="M 511.9 51 l 3 5 l -6 0 z" fill="#dc2626" opacity="0.16"/>
<circle cx="304.5" cy="57.0" r="2.4" fill="#9aa3b2" opacity="0.4"/>
<path d="M 439.7 51 l 3 5 l -6 0 z" fill="#dc2626" opacity="0.16"/>
<circle cx="194.9" cy="260.7" r="2.4" fill="#9aa3b2" opacity="0.4"/>
<path d="M 616.8 51 l 3 5 l -6 0 z" fill="#dc2626" opacity="0.16"/>
<circle cx="485.4" cy="285.3" r="2.4" fill="#9aa3b2" opacity="0.4"/>
<path d="M 615.7 51 l 3 5 l -6 0 z" fill="#dc2626" opacity="0.16"/>
<circle cx="622.1" cy="285.3" r="2.4" fill="#9aa3b2" opacity="0.4"/>
<circle cx="315.9" cy="285.3" r="2.4" fill="#9aa3b2" opacity="0.4"/>
<path d="M 621.7 51 l 3 5 l -6 0 z" fill="#dc2626" opacity="0.16"/>
<path d="M 171.4 51 l 3 5 l -6 0 z" fill="#dc2626" opacity="0.16"/>
<circle cx="519.3" cy="264.3" r="2.4" fill="#9aa3b2" opacity="0.4"/>
<path d="M 559.8 51 l 3 5 l -6 0 z" fill="#dc2626" opacity="0.16"/>
<path d="M 378.6 51 l 3 5 l -6 0 z" fill="#dc2626" opacity="0.16"/>
<path d="M 522.5 51 l 3 5 l -6 0 z" fill="#dc2626" opacity="0.16"/>
<path d="M 481.4 51 l 3 5 l -6 0 z" fill="#dc2626" opacity="0.16"/>
<path d="M 570.0 51 l 3 5 l -6 0 z" fill="#dc2626" opacity="0.16"/>
<circle cx="675.7" cy="285.3" r="2.4" fill="#9aa3b2" opacity="0.4"/>
<circle cx="649.6" cy="285.3" r="2.4" fill="#9aa3b2" opacity="0.4"/>
<path d="M 580.8 51 l 3 5 l -6 0 z" fill="#dc2626" opacity="0.16"/>
<path d="M 296.2 51 l 3 5 l -6 0 z" fill="#dc2626" opacity="0.16"/>
<path d="M 531.4 51 l 3 5 l -6 0 z" fill="#dc2626" opacity="0.16"/>
<circle cx="157.6" cy="61.7" r="2.4" fill="#9aa3b2" opacity="0.4"/>
<path d="M 378.0 51 l 3 5 l -6 0 z" fill="#dc2626" opacity="0.16"/>
<path d="M 400.0 51 l 3 5 l -6 0 z" fill="#dc2626" opacity="0.16"/>
<path d="M 442.8 51 l 3 5 l -6 0 z" fill="#dc2626" opacity="0.16"/>
<path d="M 424.8 51 l 3 5 l -6 0 z" fill="#dc2626" opacity="0.16"/>
<path d="M 493.0 51 l 3 5 l -6 0 z" fill="#dc2626" opacity="0.16"/>
<path d="M 540.5 51 l 3 5 l -6 0 z" fill="#dc2626" opacity="0.16"/>
<path d="M 515.7 51 l 3 5 l -6 0 z" fill="#dc2626" opacity="0.16"/>
<path d="M 538.4 51 l 3 5 l -6 0 z" fill="#dc2626" opacity="0.16"/>
<path d="M 257.0 51 l 3 5 l -6 0 z" fill="#dc2626" opacity="0.16"/>
<path d="M 429.5 51 l 3 5 l -6 0 z" fill="#dc2626" opacity="0.16"/>
<path d="M 504.1 51 l 3 5 l -6 0 z" fill="#dc2626" opacity="0.16"/>
<path d="M 237.9 51 l 3 5 l -6 0 z" fill="#dc2626" opacity="0.16"/>
<path d="M 182.0 51 l 3 5 l -6 0 z" fill="#dc2626" opacity="0.16"/>
<circle cx="436.1" cy="299.1" r="2.4" fill="#15a34a" opacity="0.55"/>
<circle cx="595.6" cy="286.4" r="2.4" fill="#15a34a" opacity="0.55"/>
<circle cx="369.3" cy="285.6" r="2.4" fill="#15a34a" opacity="0.55"/>
<path d="M 497.5 51 l 3 5 l -6 0 z" fill="#dc2626" opacity="0.16"/>
<path d="M 168.7 51 l 3 5 l -6 0 z" fill="#dc2626" opacity="0.16"/>
<circle cx="89.0" cy="362.4" r="2.4" fill="#15a34a" opacity="0.55"/>
<path d="M 144.7 51 l 3 5 l -6 0 z" fill="#dc2626" opacity="0.16"/>
<circle cx="133.5" cy="264.7" r="2.4" fill="#9aa3b2" opacity="0.4"/>
<path d="M 142.6 51 l 3 5 l -6 0 z" fill="#dc2626" opacity="0.16"/>
<path d="M 144.1 51 l 3 5 l -6 0 z" fill="#dc2626" opacity="0.16"/>
<circle cx="69.3" cy="382.7" r="2.4" fill="#15a34a" opacity="0.55"/>
<circle cx="190.7" cy="222.6" r="2.4" fill="#9aa3b2" opacity="0.4"/>
<path d="M 147.5 51 l 3 5 l -6 0 z" fill="#dc2626" opacity="0.16"/>
<path d="M 178.6 51 l 3 5 l -6 0 z" fill="#dc2626" opacity="0.16"/>
<path d="M 129.0 51 l 3 5 l -6 0 z" fill="#dc2626" opacity="0.16"/>
<circle cx="90.5" cy="337.2" r="2.4" fill="#15a34a" opacity="0.55"/>
<circle cx="114.4" cy="191.9" r="2.4" fill="#9aa3b2" opacity="0.4"/>
<path d="M 203.4 51 l 3 5 l -6 0 z" fill="#dc2626" opacity="0.16"/>
<path d="M 167.6 51 l 3 5 l -6 0 z" fill="#dc2626" opacity="0.16"/>
<path d="M 186.9 51 l 3 5 l -6 0 z" fill="#dc2626" opacity="0.16"/>
<path d="M 156.2 51 l 3 5 l -6 0 z" fill="#dc2626" opacity="0.16"/>
<circle cx="162.9" cy="341.6" r="2.4" fill="#15a34a" opacity="0.55"/>
<circle cx="176.5" cy="92.1" r="2.4" fill="#9aa3b2" opacity="0.4"/>
<path d="M 132.9 51 l 3 5 l -6 0 z" fill="#dc2626" opacity="0.16"/>
<path d="M 154.5 51 l 3 5 l -6 0 z" fill="#dc2626" opacity="0.16"/>
<path d="M 157.0 51 l 3 5 l -6 0 z" fill="#dc2626" opacity="0.16"/>
<circle cx="99.0" cy="280.6" r="2.4" fill="#9aa3b2" opacity="0.4"/>
<circle cx="171.2" cy="206.3" r="2.4" fill="#9aa3b2" opacity="0.4"/>
<path d="M 164.2 51 l 3 5 l -6 0 z" fill="#dc2626" opacity="0.16"/>
<circle cx="104.9" cy="153.2" r="2.4" fill="#9aa3b2" opacity="0.4"/>
<circle cx="196.6" cy="291.0" r="2.4" fill="#15a34a" opacity="0.55"/>
<path d="M 145.6 51 l 3 5 l -6 0 z" fill="#dc2626" opacity="0.16"/>
<path d="M 196.0 51 l 3 5 l -6 0 z" fill="#dc2626" opacity="0.16"/>
<circle cx="178.0" cy="52.7" r="2.4" fill="#9aa3b2" opacity="0.4"/>
<circle cx="177.1" cy="74.4" r="2.4" fill="#9aa3b2" opacity="0.4"/>
<circle cx="68.4" cy="385.4" r="2.4" fill="#15a34a" opacity="0.55"/>
<circle cx="170.8" cy="144.6" r="2.4" fill="#9aa3b2" opacity="0.4"/>
<path d="M 139.2 51 l 3 5 l -6 0 z" fill="#dc2626" opacity="0.16"/>
<circle cx="141.1" cy="247.7" r="2.4" fill="#9aa3b2" opacity="0.4"/>
<path d="M 183.9 51 l 3 5 l -6 0 z" fill="#dc2626" opacity="0.16"/>
<circle cx="130.3" cy="201.2" r="2.4" fill="#9aa3b2" opacity="0.4"/>
<circle cx="113.2" cy="316.6" r="2.4" fill="#15a34a" opacity="0.55"/>
<path d="M 135.2 51 l 3 5 l -6 0 z" fill="#dc2626" opacity="0.16"/>
<circle cx="84.1" cy="380.1" r="2.4" fill="#15a34a" opacity="0.55"/>
<circle cx="169.7" cy="149.5" r="2.4" fill="#9aa3b2" opacity="0.4"/>
<circle cx="115.3" cy="314.6" r="2.4" fill="#15a34a" opacity="0.55"/>
<path d="M 205.3 51 l 3 5 l -6 0 z" fill="#dc2626" opacity="0.16"/>
<path d="M 156.6 51 l 3 5 l -6 0 z" fill="#dc2626" opacity="0.16"/>
<circle cx="85.2" cy="362.1" r="2.4" fill="#15a34a" opacity="0.55"/>
<path d="M 169.9 51 l 3 5 l -6 0 z" fill="#dc2626" opacity="0.16"/>
<circle cx="121.4" cy="88.2" r="2.4" fill="#9aa3b2" opacity="0.4"/>
<circle cx="130.7" cy="163.8" r="2.4" fill="#9aa3b2" opacity="0.4"/>
<path d="M 177.1 51 l 3 5 l -6 0 z" fill="#dc2626" opacity="0.16"/>
<path d="M 134.1 51 l 3 5 l -6 0 z" fill="#dc2626" opacity="0.16"/>
<circle cx="157.6" cy="111.0" r="2.4" fill="#9aa3b2" opacity="0.4"/>
<circle cx="187.1" cy="249.5" r="2.4" fill="#9aa3b2" opacity="0.4"/>
<path d="M 154.3 51 l 3 5 l -6 0 z" fill="#dc2626" opacity="0.16"/>
<path d="M 158.7 51 l 3 5 l -6 0 z" fill="#dc2626" opacity="0.16"/>
<circle cx="79.7" cy="376.9" r="2.4" fill="#15a34a" opacity="0.55"/>
<circle cx="101.1" cy="302.3" r="2.4" fill="#15a34a" opacity="0.55"/>
<circle cx="114.8" cy="133.5" r="2.4" fill="#9aa3b2" opacity="0.4"/>
<path d="M 161.9 51 l 3 5 l -6 0 z" fill="#dc2626" opacity="0.16"/>
<circle cx="99.6" cy="302.8" r="2.4" fill="#15a34a" opacity="0.55"/>
<circle cx="138.2" cy="131.5" r="2.4" fill="#9aa3b2" opacity="0.4"/>
<path d="M 101.5 51 l 3 5 l -6 0 z" fill="#dc2626" opacity="0.16"/>
<path d="M 195.8 51 l 3 5 l -6 0 z" fill="#dc2626" opacity="0.16"/>
<path d="M 164.0 51 l 3 5 l -6 0 z" fill="#dc2626" opacity="0.16"/>
<path d="M 152.6 51 l 3 5 l -6 0 z" fill="#dc2626" opacity="0.16"/>
<circle cx="123.7" cy="317.9" r="2.4" fill="#15a34a" opacity="0.55"/>
<path d="M 169.1 51 l 3 5 l -6 0 z" fill="#dc2626" opacity="0.16"/>
<path d="M 180.5 51 l 3 5 l -6 0 z" fill="#dc2626" opacity="0.16"/>
<path d="M 170.8 51 l 3 5 l -6 0 z" fill="#dc2626" opacity="0.16"/>
<circle cx="167.8" cy="196.8" r="2.4" fill="#9aa3b2" opacity="0.4"/>
<path d="M 177.4 51 l 3 5 l -6 0 z" fill="#dc2626" opacity="0.16"/>
<circle cx="88.8" cy="206.3" r="2.4" fill="#9aa3b2" opacity="0.4"/>
<path d="M 161.5 51 l 3 5 l -6 0 z" fill="#dc2626" opacity="0.16"/>
<circle cx="142.4" cy="54.4" r="2.4" fill="#9aa3b2" opacity="0.4"/>
<circle cx="143.7" cy="307.2" r="2.4" fill="#15a34a" opacity="0.55"/>
<circle cx="140.1" cy="243.3" r="2.4" fill="#9aa3b2" opacity="0.4"/>
<path d="M 149.2 51 l 3 5 l -6 0 z" fill="#dc2626" opacity="0.16"/>
<circle cx="152.6" cy="115.2" r="2.4" fill="#9aa3b2" opacity="0.4"/>
<circle cx="174.8" cy="174.5" r="2.4" fill="#9aa3b2" opacity="0.4"/>
<path d="M 200.9 51 l 3 5 l -6 0 z" fill="#dc2626" opacity="0.16"/>
<path d="M 133.1 51 l 3 5 l -6 0 z" fill="#dc2626" opacity="0.16"/>
<circle cx="201.3" cy="121.0" r="2.4" fill="#9aa3b2" opacity="0.4"/>
<circle cx="140.5" cy="234.6" r="2.4" fill="#9aa3b2" opacity="0.4"/>
<path d="M 149.8 51 l 3 5 l -6 0 z" fill="#dc2626" opacity="0.16"/>
<circle cx="143.0" cy="235.0" r="2.4" fill="#9aa3b2" opacity="0.4"/>
<path d="M 190.1 51 l 3 5 l -6 0 z" fill="#dc2626" opacity="0.16"/>
<path d="M 194.5 51 l 3 5 l -6 0 z" fill="#dc2626" opacity="0.16"/>
<circle cx="112.9" cy="203.1" r="2.4" fill="#9aa3b2" opacity="0.4"/>
<circle cx="84.1" cy="358.5" r="2.4" fill="#15a34a" opacity="0.55"/>
<circle cx="124.0" cy="286.9" r="2.4" fill="#15a34a" opacity="0.55"/>
<circle cx="130.1" cy="110.1" r="2.4" fill="#9aa3b2" opacity="0.4"/>
<path d="M 179.3 51 l 3 5 l -6 0 z" fill="#dc2626" opacity="0.16"/>
<circle cx="171.8" cy="293.1" r="2.4" fill="#15a34a" opacity="0.55"/>
<path d="M 178.8 51 l 3 5 l -6 0 z" fill="#dc2626" opacity="0.16"/>
<path d="M 176.5 51 l 3 5 l -6 0 z" fill="#dc2626" opacity="0.16"/>
<circle cx="106.0" cy="342.7" r="2.4" fill="#15a34a" opacity="0.55"/>
<path d="M 185.6 51 l 3 5 l -6 0 z" fill="#dc2626" opacity="0.16"/>
<circle cx="151.9" cy="169.3" r="2.4" fill="#9aa3b2" opacity="0.4"/>
<path d="M 137.1 51 l 3 5 l -6 0 z" fill="#dc2626" opacity="0.16"/>
<path d="M 133.3 51 l 3 5 l -6 0 z" fill="#dc2626" opacity="0.16"/>
<path d="M 169.5 51 l 3 5 l -6 0 z" fill="#dc2626" opacity="0.16"/>
<path d="M 158.3 51 l 3 5 l -6 0 z" fill="#dc2626" opacity="0.16"/>
<circle cx="151.7" cy="170.5" r="2.4" fill="#9aa3b2" opacity="0.4"/>
<circle cx="144.7" cy="138.4" r="2.4" fill="#9aa3b2" opacity="0.4"/>
<circle cx="158.9" cy="224.9" r="2.4" fill="#9aa3b2" opacity="0.4"/>
<path d="M 169.1 51 l 3 5 l -6 0 z" fill="#dc2626" opacity="0.16"/>
<path d="M 159.3 51 l 3 5 l -6 0 z" fill="#dc2626" opacity="0.16"/>
<circle cx="183.7" cy="280.4" r="2.4" fill="#9aa3b2" opacity="0.4"/>
<path d="M 109.8 51 l 3 5 l -6 0 z" fill="#dc2626" opacity="0.16"/>
<circle cx="125.2" cy="185.5" r="2.4" fill="#9aa3b2" opacity="0.4"/>
<circle cx="168.7" cy="194.4" r="2.4" fill="#9aa3b2" opacity="0.4"/>
<circle cx="151.3" cy="224.8" r="2.4" fill="#9aa3b2" opacity="0.4"/>
<path d="M 179.5 51 l 3 5 l -6 0 z" fill="#dc2626" opacity="0.16"/>
<circle cx="79.7" cy="382.8" r="2.4" fill="#15a34a" opacity="0.55"/>
<circle cx="139.0" cy="208.9" r="2.4" fill="#9aa3b2" opacity="0.4"/>
<path d="M 167.0 51 l 3 5 l -6 0 z" fill="#dc2626" opacity="0.16"/>
<path d="M 147.5 51 l 3 5 l -6 0 z" fill="#dc2626" opacity="0.16"/>
<circle cx="125.4" cy="269.4" r="2.4" fill="#9aa3b2" opacity="0.4"/>
<path d="M 133.5 51 l 3 5 l -6 0 z" fill="#dc2626" opacity="0.16"/>
<path d="M 136.0 51 l 3 5 l -6 0 z" fill="#dc2626" opacity="0.16"/>
<path d="M 187.3 51 l 3 5 l -6 0 z" fill="#dc2626" opacity="0.16"/>
<polyline points="64.0,385.8 95.8,380.1 127.6,317.9 159.3,341.6 191.1,291.0 222.9,295.4 254.7,302.7 286.5,286.5 318.2,288.4 350.0,290.9 381.8,303.0 413.6,296.6 445.4,299.2 477.2,296.5 508.9,300.4 540.7,299.0 572.5,299.1 604.3,286.4 636.1,286.1 667.8,292.1 699.6,290.4 731.4,285.3" fill="none" stroke="#0ea5e9" stroke-width="2.4"/>
<text x="212.3" y="320.9" fill="#0ea5e9" font-size="10.5" font-weight="600">min-energy envelope</text>
<path d="M 557.4 67.7 l 8 8 l -8 8 l -8 -8 z" fill="#d97706" stroke="#fff" stroke-width="1.5"/>
<text x="545.4" y="63.7" fill="#d97706" font-size="12" font-weight="700" text-anchor="end">Chai-1 prediction</text>
<text x="545.4" y="77.7" fill="#b45309" font-size="10.5" text-anchor="end">23 &#197; off &#183; +53 kcal/mol &#183; ipTM 0.63</text>
<polygon points="64.0,376.8 66.2,382.8 72.6,383.0 67.6,387.0 69.3,393.1 64.0,389.6 58.7,393.1 60.4,387.0 55.4,383.0 61.8,382.8" fill="#15a34a" stroke="#fff" stroke-width="1.1"/>
<text x="78.0" y="379.8" fill="#15a34a" font-size="12" font-weight="700">crystal pose</text>
<text x="78.0" y="393.8" fill="#15803d" font-size="10.5">&#8722;25 kcal/mol &#183; global minimum</text>
<text x="403.0" y="452" fill="#5c6675" font-size="12" text-anchor="middle">KRAS displacement from crystal pose (C&#945; RMSD, &#197;)</text>
<text x="16" y="226.0" fill="#5c6675" font-size="12" text-anchor="middle" transform="rotate(-90 16 226.0)">interface energy (kcal/mol)</text>
<text x="64" y="30" fill="#161b26" font-size="13.5" font-weight="700">Stop predicting, start scoring: the crystal pose is the energy minimum</text>
<text x="64" y="44" fill="#5c6675" font-size="11">640 rigid-body KRAS decoys &#183; soft van der Waals interface energy &#183; CypA&#183;drug composite held fixed</text>
</svg>
